<svg width="1200" height="1200" viewBox="0 0 1200 1200" fill="none" xmlns="http://www.w3.org/2000/svg">
<path d="M794.722 240C802.058 240 808.839 243.907 812.519 250.254L1007.23 586.095C1010.89 592.42 1010.93 600.215 1007.32 606.572L812.487 949.589C808.832 956.024 802.001 960 794.6 960H661.96L646.847 784.412L840.587 559.692C843.905 555.843 838.639 550.598 834.773 553.902L641.248 719.372L629.843 586.857L762.161 421.999C765.231 418.173 760.208 413.17 756.366 416.228L624.211 521.421L604.089 287.626C603.657 282.611 596.322 282.611 595.891 287.626L575.508 524.432L439.572 416.228C435.731 413.17 430.707 418.173 433.777 421.999L569.744 591.404L558.598 720.906L363.279 553.902C359.414 550.597 354.146 555.842 357.465 559.691L552.957 786.444L538.02 960H405.4C397.999 960 391.169 956.024 387.514 949.589L192.684 606.572C189.073 600.215 189.108 592.419 192.774 586.095L387.482 250.254C391.162 243.907 397.943 240 405.279 240H794.722Z" fill="#A2D729"/>
</svg>
